<svg width="29" height="28" viewBox="0 0 29 28" fill="none" xmlns="http://www.w3.org/2000/svg">
<g id="Iconly/Bold/3 User">
<g id="3 User">
<path id="3 Friends" fill-rule="evenodd" clip-rule="evenodd" d="M19.2028 9.60483C19.2028 12.3461 17.0186 14.5442 14.2945 14.5442C11.5705 14.5442 9.38626 12.3461 9.38626 9.60483C9.38626 6.86248 11.5705 4.6665 14.2945 4.6665C17.0186 4.6665 19.2028 6.86248 19.2028 9.60483ZM14.2945 23.3332C10.2935 23.3332 6.87728 22.6985 6.87728 20.16C6.87728 17.6205 10.2716 16.9627 14.2945 16.9627C18.2954 16.9627 21.7117 17.5973 21.7117 20.1369C21.7117 22.6754 18.3174 23.3332 14.2945 23.3332ZM21.3003 9.69396C21.3003 11.0914 20.8837 12.3932 20.1528 13.4755C20.0777 13.5868 20.1445 13.7371 20.2771 13.7602C20.4598 13.7917 20.6488 13.8096 20.8409 13.8148C22.7568 13.8653 24.4764 12.6244 24.9515 10.7562C25.6552 7.9813 23.5889 5.49008 20.9578 5.49008C20.6718 5.49008 20.3982 5.52055 20.132 5.57518C20.0954 5.58359 20.0568 5.6004 20.0359 5.63297C20.0108 5.6729 20.0296 5.72648 20.0547 5.76116C20.8451 6.87596 21.3003 8.23557 21.3003 9.69396ZM24.4733 15.7645C25.7606 16.0177 26.6074 16.5347 26.9582 17.2859C27.2547 17.9027 27.2547 18.6182 26.9582 19.2339C26.4216 20.3992 24.6915 20.7732 24.0191 20.8699C23.8802 20.8909 23.7685 20.7701 23.7831 20.6303C24.1266 17.4015 21.3943 15.8706 20.6874 15.5186C20.6571 15.5029 20.6509 15.4787 20.654 15.464C20.6561 15.4535 20.6686 15.4367 20.6916 15.4335C22.2212 15.4051 23.8656 15.6153 24.4733 15.7645ZM7.86733 13.8147C8.05944 13.8094 8.24738 13.7926 8.43114 13.76C8.56374 13.7369 8.63056 13.5867 8.55539 13.4753C7.82452 12.3931 7.40793 11.0912 7.40793 9.69379C7.40793 8.2354 7.86316 6.87579 8.65353 5.76099C8.67859 5.72631 8.69634 5.67273 8.67233 5.6328C8.65144 5.60128 8.61177 5.58342 8.57627 5.57501C8.30898 5.52037 8.03543 5.4899 7.74935 5.4899C5.11824 5.4899 3.05199 7.98113 3.75675 10.7561C4.23181 12.6242 5.95143 13.8651 7.86733 13.8147ZM8.05369 15.4634C8.05682 15.4791 8.05056 15.5023 8.02132 15.5191C7.31343 15.871 4.58105 17.4019 4.92455 20.6297C4.93917 20.7705 4.8285 20.8903 4.68963 20.8703C4.01724 20.7737 2.28718 20.3996 1.75052 19.2344C1.45295 18.6176 1.45295 17.9031 1.75052 17.2864C2.10133 16.5351 2.94705 16.0181 4.23441 15.7639C4.84311 15.6157 6.48651 15.4056 8.01715 15.434C8.04012 15.4371 8.0516 15.4539 8.05369 15.4634Z" fill="#FFCF00"/>
</g>
</g>
</svg>
