<svg width="25" height="24" viewBox="0 0 25 24" fill="none" xmlns="http://www.w3.org/2000/svg">
<g id="Iconly/Bold/Search">
<g id="Search">
<path id="Search_2" fill-rule="evenodd" clip-rule="evenodd" d="M2.49976 10.6699C2.49976 5.88166 6.3381 2 11.0729 2C13.3467 2 15.5273 2.91344 17.1351 4.53936C18.7429 6.16529 19.6461 8.37052 19.6461 10.6699C19.6461 15.4582 15.8078 19.3399 11.0729 19.3399C6.3381 19.3399 2.49976 15.4582 2.49976 10.6699ZM19.5043 17.6543L22.0576 19.7164H22.102C22.6185 20.2388 22.6185 21.0858 22.102 21.6082C21.5854 22.1306 20.7479 22.1306 20.2313 21.6082L18.1124 19.1784C17.9121 18.9766 17.7995 18.7023 17.7995 18.4164C17.7995 18.1304 17.9121 17.8561 18.1124 17.6543C18.4987 17.2704 19.118 17.2704 19.5043 17.6543Z" fill="#6E9CFD"/>
</g>
</g>
</svg>
