<svg width="25" height="24" viewBox="0 0 25 24" fill="none" xmlns="http://www.w3.org/2000/svg">
<g id="Iconly/Bold/Document">
<g id="Document">
<path id="Document_2" fill-rule="evenodd" clip-rule="evenodd" d="M8.307 2H16.6836C19.771 2 21.4901 3.78 21.4901 6.83V17.16C21.4901 20.26 19.771 22 16.6836 22H8.307C5.26859 22 3.49951 20.26 3.49951 17.16V6.83C3.49951 3.78 5.26859 2 8.307 2ZM8.57681 6.66006V6.65006H11.5643C11.995 6.65006 12.3448 7.00006 12.3448 7.42906C12.3448 7.87006 11.995 8.22006 11.5643 8.22006H8.57681C8.14604 8.22006 7.79722 7.87006 7.79722 7.44006C7.79722 7.01006 8.14604 6.66006 8.57681 6.66006ZM8.57681 12.7401H16.4127C16.8425 12.7401 17.1923 12.3901 17.1923 11.9601C17.1923 11.5301 16.8425 11.1791 16.4127 11.1791H8.57681C8.14604 11.1791 7.79722 11.5301 7.79722 11.9601C7.79722 12.3901 8.14604 12.7401 8.57681 12.7401ZM8.57684 17.31H16.4127C16.8115 17.27 17.1124 16.929 17.1124 16.53C17.1124 16.12 16.8115 15.78 16.4127 15.74H8.57684C8.27699 15.71 7.98714 15.85 7.82723 16.11C7.66731 16.36 7.66731 16.69 7.82723 16.95C7.98714 17.2 8.27699 17.35 8.57684 17.31Z" fill="#4DBCFE"/>
</g>
</g>
</svg>
