<svg width="29" height="28" viewBox="0 0 29 28" fill="none" xmlns="http://www.w3.org/2000/svg">
<g id="Iconly/Bold/Discount">
<g id="Discount">
<path id="Discount_2" fill-rule="evenodd" clip-rule="evenodd" d="M24.3564 10.6703L25.1963 11.5103C25.8612 12.1636 26.2228 13.0503 26.2228 13.9836C26.2345 14.9169 25.8729 15.8048 25.2196 16.4686C25.2119 16.4771 25.2041 16.4847 25.1963 16.4922C25.1924 16.4959 25.1885 16.4997 25.1846 16.5036L24.3564 17.3319C24.0298 17.6586 23.8432 18.1019 23.8432 18.5698V19.7703C23.8432 21.7069 22.2684 23.2831 20.3321 23.2831H19.1306C18.664 23.2831 18.2207 23.4686 17.8941 23.7953L17.0542 24.6353C16.366 25.3248 15.4678 25.6619 14.5696 25.6619C13.6714 25.6619 12.7732 25.3248 12.085 24.6481L11.2335 23.7953C10.9069 23.4686 10.4636 23.2831 9.99701 23.2831H8.79554C6.85917 23.2831 5.28442 21.7069 5.28442 19.7703V18.5698C5.28442 18.1019 5.09778 17.6586 4.77117 17.3203L3.9313 16.4919C2.56651 15.1281 2.55485 12.8986 3.91963 11.5231L4.77117 10.6703C5.09778 10.3436 5.28442 9.90026 5.28442 9.42193V8.23193C5.28442 6.29526 6.85917 4.72143 8.79554 4.72143H9.99701C10.4636 4.72143 10.9069 4.53359 11.2335 4.20693L12.0734 3.36693C13.4381 1.99143 15.6661 1.99143 17.0426 3.35643L17.8941 4.20693C18.2207 4.53359 18.664 4.72143 19.1306 4.72143H20.3321C22.2684 4.72143 23.8432 6.29526 23.8432 8.23193V9.43476C23.8432 9.90026 24.0298 10.3436 24.3564 10.6703ZM11.5601 18.0203C11.8401 18.0203 12.0967 17.9153 12.2834 17.7169L18.2791 11.7214C18.6757 11.3248 18.6757 10.6703 18.2791 10.2736C17.8825 9.87812 17.2409 9.87812 16.8443 10.2736L10.8486 16.2703C10.452 16.6669 10.452 17.3203 10.8486 17.7169C11.0352 17.9153 11.2918 18.0203 11.5601 18.0203ZM16.541 16.9936C16.541 17.5652 16.9959 18.0202 17.5675 18.0202C18.1274 18.0202 18.5823 17.5652 18.5823 16.9936C18.5823 16.4347 18.1274 15.9786 17.5675 15.9786C16.9959 15.9786 16.541 16.4347 16.541 16.9936ZM11.5717 9.98189C12.1316 9.98189 12.5866 10.4369 12.5866 10.9969C12.5866 11.5697 12.1316 12.0236 11.5717 12.0236C11.0118 12.0236 10.5452 11.5697 10.5452 10.9969C10.5452 10.4369 11.0118 9.98189 11.5717 9.98189Z" fill="#51A690"/>
</g>
</g>
</svg>
