<svg width="25" height="24" viewBox="0 0 25 24" fill="none" xmlns="http://www.w3.org/2000/svg">
<g id="Iconly/Bold/Folder">
<g id="Folder">
<path id="Folder_2" fill-rule="evenodd" clip-rule="evenodd" d="M13.9436 4.88017H17.012C20.7001 4.88017 22.4991 6.85017 22.4891 10.8902V15.7602C22.4891 19.6202 20.1104 22.0002 16.2424 22.0002H8.73627C4.88827 22.0002 2.49951 19.6202 2.49951 15.7502V8.24017C2.49951 4.10017 4.33856 2.00017 7.96667 2.00017H9.54585C10.4764 1.99017 11.3449 2.42017 11.9146 3.15017L12.7942 4.32017C13.074 4.67017 13.4938 4.88017 13.9436 4.88017ZM7.86677 15.2902H17.122C17.5318 15.2902 17.8616 14.9502 17.8616 14.5402C17.8616 14.1202 17.5318 13.7902 17.122 13.7902H7.86677C7.44699 13.7902 7.11716 14.1202 7.11716 14.5402C7.11716 14.9502 7.44699 15.2902 7.86677 15.2902Z" fill="#8E7EFC"/>
</g>
</g>
</svg>
