<svg width="29" height="28" viewBox="0 0 29 28" fill="none" xmlns="http://www.w3.org/2000/svg">
<g id="Iconly/Bold/Graph">
<g id="Graph">
<path id="Graph_2" fill-rule="evenodd" clip-rule="evenodd" d="M14.9432 2.5781C15.1294 2.41087 15.3757 2.32321 15.6279 2.33446C20.9577 2.49409 25.4121 6.36526 26.2194 11.5392C26.2245 11.5701 26.2245 11.6016 26.2194 11.6325C26.2368 11.8773 26.1541 12.1188 25.9896 12.3037C25.8251 12.4885 25.5924 12.6013 25.3429 12.6173L16.3882 13.2081C16.092 13.2344 15.7984 13.1369 15.5793 12.9396C15.3602 12.7423 15.236 12.4634 15.2372 12.1715L14.6352 3.37103V3.22591C14.6462 2.9784 14.757 2.74533 14.9432 2.5781ZM14.329 15.5093L22.0905 15.0118L22.1433 15.0325C22.4766 15.0379 22.794 15.1732 23.0257 15.4084C23.2574 15.6436 23.3844 15.9596 23.3788 16.2867C23.0729 20.7459 19.8054 24.4716 15.3587 25.4314C10.9121 26.3913 6.35372 24.3548 4.1704 20.433C3.52841 19.3035 3.12272 18.0595 2.97713 16.7739C2.92067 16.393 2.89595 16.0082 2.90322 15.6233C2.91793 10.8817 6.29204 6.78908 11.0132 5.78626C11.5847 5.67923 12.1577 5.96473 12.4071 6.48076C12.4692 6.5744 12.5188 6.67541 12.5549 6.78137C12.6434 8.14827 12.7352 9.50222 12.8266 10.8505C12.8988 11.9151 12.9708 12.9763 13.0407 14.0374C13.0371 14.2874 13.0763 14.5362 13.1568 14.7733C13.3463 15.24 13.8179 15.5361 14.329 15.5093Z" fill="#75578E"/>
</g>
</g>
</svg>
