<svg width="29" height="28" viewBox="0 0 29 28" fill="none" xmlns="http://www.w3.org/2000/svg">
<g id="Iconly/Bold/Bag 2">
<g id="Bag 2">
<path id="Bag 2_2" fill-rule="evenodd" clip-rule="evenodd" d="M19.506 7.5485H19.7448C22.8838 7.5485 25.4314 10.1735 25.4314 13.3935V19.8335C25.4314 23.0535 22.8838 25.6668 19.7448 25.6668H8.96299C5.82397 25.6668 3.27637 23.0535 3.27637 19.8335V13.3935C3.27637 10.1735 5.82397 7.5485 8.96299 7.5485H9.20182C9.22457 6.1485 9.75911 4.84183 10.7258 3.86183C11.7039 2.87016 12.955 2.3685 14.3653 2.3335C17.1858 2.3335 19.4719 4.66683 19.506 7.5485ZM11.92 5.11016C11.2831 5.7635 10.9305 6.62683 10.9078 7.5485H17.8C17.7658 5.63516 16.2418 4.0835 14.3652 4.0835C13.4895 4.0835 12.5796 4.44516 11.92 5.11016ZM18.6761 12.0402C19.1541 12.0402 19.5296 11.6435 19.5296 11.1652V9.81186C19.5296 9.33352 19.1541 8.93686 18.6761 8.93686C18.2096 8.93686 17.8227 9.33352 17.8227 9.81186V11.1652C17.8227 11.6435 18.2096 12.0402 18.6761 12.0402ZM10.7836 11.1652C10.7836 11.6435 10.4081 12.0402 9.93013 12.0402C9.46358 12.0402 9.07669 11.6435 9.07669 11.1652V9.81186C9.07669 9.33352 9.46358 8.93686 9.93013 8.93686C10.4081 8.93686 10.7836 9.33352 10.7836 9.81186V11.1652Z" fill="#0985B9"/>
</g>
</g>
</svg>
