<svg width="29" height="28" viewBox="0 0 29 28" fill="none" xmlns="http://www.w3.org/2000/svg">
<path fill-rule="evenodd" clip-rule="evenodd" d="M9.32532 2.33398H20.2151C24.1809 2.33398 26.4197 4.58448 26.4314 8.55232V19.449C26.4314 23.4157 24.1809 25.6673 20.2151 25.6673H9.32532C5.35956 25.6673 3.11023 23.4157 3.11023 19.449V8.55232C3.11023 4.58448 5.35956 2.33398 9.32532 2.33398ZM14.8279 20.8373C15.3305 20.8373 15.7491 20.464 15.7958 19.9623V8.07398C15.8424 7.71231 15.6687 7.34947 15.3538 7.15231C15.0262 6.95397 14.6297 6.95397 14.316 7.15231C14 7.34947 13.8263 7.71231 13.8601 8.07398V19.9623C13.9196 20.464 14.3382 20.8373 14.8279 20.8373ZM20.193 20.8373C20.6827 20.8373 21.1013 20.464 21.1608 19.9623V16.1357C21.1946 15.7612 21.0209 15.4123 20.7049 15.214C20.3912 15.0157 19.9947 15.0157 19.6683 15.214C19.3522 15.4123 19.1785 15.7612 19.2251 16.1357V19.9623C19.2718 20.464 19.6904 20.8373 20.193 20.8373ZM10.3619 19.9624C10.3153 20.464 9.89669 20.8374 9.39411 20.8374C8.89271 20.8374 8.47293 20.464 8.42745 19.9624V11.9007C8.39247 11.5379 8.56621 11.1774 8.88221 10.979C9.19588 10.7807 9.59351 10.7807 9.90835 10.979C10.222 11.1774 10.3981 11.5379 10.3619 11.9007V19.9624Z" fill="#FEAD86"/>
</svg>
