<svg width="29" height="28" viewBox="0 0 29 28" fill="none" xmlns="http://www.w3.org/2000/svg">
<g id="Iconly/Bold/Search">
<g id="Search">
<path id="Search_2" fill-rule="evenodd" clip-rule="evenodd" d="M3.10974 12.4484C3.10974 6.8621 7.5878 2.3335 13.1118 2.3335C15.7645 2.3335 18.3085 3.39917 20.1843 5.29609C22.06 7.193 23.1138 9.76577 23.1138 12.4484C23.1138 18.0347 18.6357 22.5633 13.1118 22.5633C7.5878 22.5633 3.10974 18.0347 3.10974 12.4484ZM22.9483 20.5968L25.9272 23.0026H25.9789C26.5816 23.6121 26.5816 24.6002 25.9789 25.2097C25.3762 25.8192 24.3991 25.8192 23.7965 25.2097L21.3244 22.375C21.0907 22.1395 20.9593 21.8196 20.9593 21.4859C20.9593 21.1522 21.0907 20.8323 21.3244 20.5968C21.7751 20.1489 22.4976 20.1489 22.9483 20.5968Z" fill="#00A198"/>
</g>
</g>
</svg>
